<?xml version="1.0" standalone="no"?>
<!DOCTYPE svg PUBLIC "-//W3C//DTD SVG 1.1//EN"
"http://www.w3.org/Graphics/SVG/1.1/DTD/svg11.dtd">

<svg width="367" height="279" view_box="0 0 367 279"
xmlns="http://www.w3.org/2000/svg"
xmlns:link="http://www.w3.org/1999/xlink">\n\n<desc>Généré par Mocodo 2.3.7 le Mon, 17 May 2021 11:52:42</desc>

<rect id="frame" x="0" y="0" width="367" height="279" fill="#ffffbf" stroke="none" stroke-width="0"/>

<!-- Association EST DISPO -->
<line x1="188" y1="85" x2="317" y2="85" stroke="#f46d43" stroke-width="2"/>
<text x="249" y="102.0" fill="#4575b4" font-family="Verdana" font-size="12">1,1</text>
<line x1="317" y1="228" x2="317" y2="85" stroke="#f46d43" stroke-width="2"/>
<text x="322.0" y="195" fill="#4575b4" font-family="Verdana" font-size="12">1,N</text>
<g id="association-EST DISPO">
	<path d="M 344 60 a 14 14 90 0 1 14 14 V 85 h -82 V 74 a 14 14 90 0 1 14 -14" fill="#fdae61" stroke="#fdae61" stroke-width="0"/>
	<path d="M 358 85.0 v 11 a 14 14 90 0 1 -14 14 H 290 a 14 14 90 0 1 -14 -14 V 85.0 H 82" fill="#fee090" stroke="#fee090" stroke-width="0"/>
	<rect x="276" y="60" width="82" height="50" fill="none" rx="14" stroke="#f46d43" stroke-width="2"/>
	<line x1="276" y1="85" x2="358" y2="85" stroke="#f46d43" stroke-width="1"/>
	<text x="283" y="77.7" fill="#000000" font-family="Verdana" font-size="12">EST DISPO</text>
</g>

<!-- Association EST PROMU -->
<line x1="188" y1="85" x2="57" y2="85" stroke="#f46d43" stroke-width="2"/>
<text x="106" y="102.0" fill="#4575b4" font-family="Verdana" font-size="12">1,1</text>
<line x1="57" y1="228" x2="57" y2="85" stroke="#f46d43" stroke-width="2"/>
<text x="62.0" y="178" fill="#4575b4" font-family="Verdana" font-size="12">1,N</text>
<g id="association-EST PROMU">
	<path d="M 86 60 a 14 14 90 0 1 14 14 V 85 h -86 V 74 a 14 14 90 0 1 14 -14" fill="#fdae61" stroke="#fdae61" stroke-width="0"/>
	<path d="M 100 85.0 v 11 a 14 14 90 0 1 -14 14 H 28 a 14 14 90 0 1 -14 -14 V 85.0 H 86" fill="#fee090" stroke="#fee090" stroke-width="0"/>
	<rect x="14" y="60" width="86" height="50" fill="none" rx="14" stroke="#f46d43" stroke-width="2"/>
	<line x1="14" y1="85" x2="100" y2="85" stroke="#f46d43" stroke-width="1"/>
	<text x="21" y="77.7" fill="#000000" font-family="Verdana" font-size="12">EST PROMU</text>
</g>

<!-- Entity OFFRE -->
<g id="entity-OFFRE">
	<g id="frame-OFFRE">
		<rect x="132" y="9" width="112" height="25" fill="#abd9e9" stroke="#abd9e9" stroke-width="0"/>
		<rect x="132" y="34.0" width="112" height="127" fill="#e0f3f8" stroke="#e0f3f8" stroke-width="0"/>
		<rect x="132" y="9" width="112" height="152" fill="none" stroke="#74add1" stroke-width="2"/>
		<line x1="132" y1="34" x2="244" y2="34" stroke="#74add1" stroke-width="1"/>
	</g>
	<text x="168" y="26.7" fill="#000000" font-family="Verdana" font-size="12">OFFRE</text>
	<text x="137" y="51.7" fill="#000000" font-family="Verdana" font-size="12">poste</text>
	<line x1="137" y1="54" x2="171" y2="54" stroke="#000000" stroke-width="1"/>
	<text x="137" y="68.7" fill="#000000" font-family="Verdana" font-size="12">entreprise</text>
	<text x="137" y="85.8" fill="#000000" font-family="Verdana" font-size="12">date_postulation</text>
	<text x="137" y="102.8" fill="#000000" font-family="Verdana" font-size="12">notes</text>
	<text x="137" y="119.8" fill="#000000" font-family="Verdana" font-size="12">contact</text>
	<text x="137" y="136.8" fill="#000000" font-family="Verdana" font-size="12">date_de_relance</text>
	<text x="137" y="153.8" fill="#000000" font-family="Verdana" font-size="12">url_offre</text>
</g>

<!-- Entity SITE -->
<g id="entity-SITE">
	<g id="frame-SITE">
		<rect x="297" y="203" width="40" height="25" fill="#abd9e9" stroke="#abd9e9" stroke-width="0"/>
		<rect x="297" y="228.0" width="40" height="25" fill="#e0f3f8" stroke="#e0f3f8" stroke-width="0"/>
		<rect x="297" y="203" width="40" height="50" fill="none" stroke="#74add1" stroke-width="2"/>
		<line x1="297" y1="228" x2="337" y2="228" stroke="#74add1" stroke-width="1"/>
	</g>
	<text x="302" y="220.7" fill="#000000" font-family="Verdana" font-size="12">SITE</text>
	<text x="302" y="245.8" fill="#000000" font-family="Verdana" font-size="12">nom</text>
	<line x1="302" y1="248" x2="330" y2="248" stroke="#000000" stroke-width="1"/>
</g>

<!-- Entity ENTREPRISE -->
<g id="entity-ENTREPRISE">
	<g id="frame-ENTREPRISE">
		<rect x="9" y="186" width="96" height="25" fill="#abd9e9" stroke="#abd9e9" stroke-width="0"/>
		<rect x="9" y="211.0" width="96" height="59" fill="#e0f3f8" stroke="#e0f3f8" stroke-width="0"/>
		<rect x="9" y="186" width="96" height="84" fill="none" stroke="#74add1" stroke-width="2"/>
		<line x1="9" y1="211" x2="105" y2="211" stroke="#74add1" stroke-width="1"/>
	</g>
	<text x="18" y="203.7" fill="#000000" font-family="Verdana" font-size="12">ENTREPRISE</text>
	<text x="14" y="228.8" fill="#000000" font-family="Verdana" font-size="12">nom</text>
	<line x1="14" y1="231" x2="42" y2="231" stroke="#000000" stroke-width="1"/>
	<text x="14" y="245.8" fill="#000000" font-family="Verdana" font-size="12">type structure</text>
	<text x="14" y="262.8" fill="#000000" font-family="Verdana" font-size="12">département</text>
</g>
</svg>